<?xml version="1.0" encoding="UTF-8" standalone="no"?>
<!-- Created with Inkscape (http://www.inkscape.org/) -->

<svg
   width="142.57359mm"
   height="141.76619mm"
   viewBox="0 0 142.57359 141.76619"
   version="1.1"
   id="svg5"
   xml:space="preserve"
   xmlns="http://www.w3.org/2000/svg"
   xmlnsSvg="http://www.w3.org/2000/svg"><defs
     id="defs2" /><g
     id="layer1"
     transform="translate(-35.294553,-69.040106)"><path
       style="fill:#8eb5f0;fill-opacity:1;stroke-width:0.289784"
       d="m 105.11451,210.4567 c -0.70737,-0.27813 -3.71288,-1.68059 -6.678948,-3.11658 -4.875228,-2.36029 -5.423922,-2.70008 -5.716771,-3.54015 -0.461194,-1.32298 0.161009,-2.72206 1.403133,-3.15507 1.016557,-0.35438 2.355207,0.12233 7.309336,2.60292 1.23165,0.61671 2.30748,1.12129 2.3907,1.12129 0.0832,0 0.15133,-2.47039 0.15133,-5.48973 0,-5.29976 0.0229,-5.51637 0.66198,-6.25933 0.50765,-0.59017 0.92758,-0.7696 1.80119,-0.7696 0.8736,0 1.29354,0.17943 1.80118,0.7696 0.63908,0.74296 0.66198,0.95957 0.66198,6.25933 0,3.01934 0.0578,5.48973 0.12857,5.48973 0.0707,0 1.79854,-0.79544 3.83964,-1.76764 4.66311,-2.22112 4.97957,-2.3158 6.12705,-1.83333 1.51864,0.63855 1.91117,2.91399 0.68276,3.95785 -0.55579,0.47228 -11.39467,5.67278 -12.53464,6.01412 -0.48846,0.14626 -1.18229,0.0494 -2.02849,-0.28341 z M 79.341679,198.07305 c -0.239071,-0.067 -4.065315,-1.83716 -8.502765,-3.93355 -6.687051,-3.15918 -8.141086,-3.95279 -8.494551,-4.63632 -0.493768,-0.95484 -0.305315,-2.24633 0.423623,-2.90314 1.245876,-1.12261 1.662161,-0.99908 10.097795,2.99651 4.438339,2.10224 8.363115,4.1417 8.721722,4.53214 0.750992,0.81764 0.842572,2.01524 0.221867,2.90142 -0.474393,0.67729 -1.789615,1.23315 -2.467691,1.04294 z m 52.168451,-0.65138 c -0.8201,-0.8201 -0.9945,-1.83689 -0.4843,-2.82351 0.36961,-0.71475 1.76511,-1.48281 8.76635,-4.82485 9.00171,-4.29696 9.34967,-4.39184 10.54298,-2.87479 0.71786,0.91262 0.74945,2.13767 0.076,2.94723 -0.27892,0.33527 -4.05875,2.30575 -8.39962,4.37886 -8.34017,3.98305 -9.39444,4.30402 -10.50139,3.19706 z m -25.95308,-10.41929 c -1.30752,-0.54383 -1.43189,-1.02933 -1.58376,-6.18272 l -0.1449,-4.91653 -13.619821,-6.49905 c -7.490909,-3.57448 -14.35131,-6.82901 -15.24534,-7.23229 l -1.6255,-0.73324 -4.617055,2.19467 c -2.539381,1.20706 -4.962897,2.19465 -5.385593,2.19465 -0.860963,0 -2.116386,-0.9999 -2.368747,-1.88662 -0.09119,-0.32044 0.06127,-1.0275 0.338811,-1.57127 0.443183,-0.8683 1.122025,-1.28047 5.575834,-3.3855 l 5.071215,-2.39683 0.0748,-16.49666 c 0.05886,-12.97907 -0.003,-16.55872 -0.289783,-16.78769 -0.200522,-0.16007 -2.385828,-1.23626 -4.856233,-2.39154 -4.767048,-2.2293 -5.795675,-3.00083 -5.795675,-4.34712 0,-0.99757 1.018626,-2.2324 2.028486,-2.45903 0.526242,-0.1181 2.034685,0.46023 5.513138,2.11368 l 4.788682,2.27627 14.916612,-7.12669 c 8.204136,-3.91967 15.079609,-7.23068 15.278839,-7.3578 0.27084,-0.17281 0.36223,-1.75801 0.36223,-6.283313 0,-5.949664 0.0117,-6.065732 0.68691,-6.850777 0.888,-1.032362 2.49753,-1.10409 3.44895,-0.153707 0.61783,0.617144 0.65181,0.914799 0.79047,6.925487 l 0.14489,6.28062 15.24447,7.28163 15.24448,7.28164 5.04039,-2.40059 c 3.0025,-1.43 5.42117,-2.40557 5.98218,-2.41292 1.08316,-0.0142 1.98942,0.74648 2.28301,1.91625 0.39378,1.56895 -0.26494,2.10105 -6.19509,5.00423 l -5.57833,2.73095 v 16.62776 16.62777 l 5.33599,2.56473 c 5.40906,2.59986 5.96557,3.02029 5.96557,4.50691 0,0.92843 -1.43495,2.45992 -2.30485,2.45992 -0.33591,0 -2.77848,-1.04322 -5.42793,-2.31827 -2.64946,-1.27505 -4.91518,-2.31827 -5.03495,-2.31827 -0.11976,0 -7.04362,3.257 -15.38634,7.23778 l -15.1686,7.23778 -0.14489,4.92603 c -0.13041,4.43349 -0.20284,4.98285 -0.72446,5.49442 -0.70339,0.68985 -1.82104,0.95676 -2.61811,0.62525 z m -1.7986,-48.44107 c -0.18278,-0.17108 -25.246558,-12.18259 -26.372811,-12.63886 -0.287243,-0.11636 -0.358013,3.05418 -0.341861,15.31525 0.01119,8.50409 0.121758,15.72169 0.245685,16.03911 0.157932,0.40453 4.159976,2.45251 13.382128,6.8481 l 13.156799,6.27098 0.0749,-15.8144 c 0.0412,-8.69793 -0.024,-15.90701 -0.14489,-16.02018 z m 19.63036,25.0436 c 6.61431,-3.16722 12.18903,-5.86127 12.38825,-5.98678 0.28256,-0.178 0.36224,-3.70221 0.36224,-16.02382 0,-15.12946 -0.0222,-15.7886 -0.52618,-15.62864 -0.28939,0.0919 -6.38572,2.96589 -13.54739,6.38676 l -13.02122,6.21976 -0.0749,15.93686 -0.0749,15.93687 1.23403,-0.54122 c 0.67872,-0.29766 6.64574,-3.13257 13.26005,-6.29979 z m -3.11518,-35.89736 c 7.29168,-3.47808 13.25272,-6.39746 13.24676,-6.48752 -0.0145,-0.21782 -26.88931,-12.92998 -27.18523,-12.85896 -0.42964,0.1031 -26.557466,12.58973 -26.764546,12.79091 -0.266288,0.2587 26.436726,13.07443 27.010736,12.96341 0.23907,-0.0463 6.4006,-2.92977 13.69228,-6.40784 z m -78.032051,52.81098 c -4.594965,-2.20555 -6.315019,-3.17139 -6.579879,-3.69475 -0.257308,-0.50843 -0.35981,-2.84302 -0.362875,-8.26489 -0.0043,-7.52643 -0.0016,-7.55881 0.666418,-8.18639 0.955482,-0.89763 2.504047,-0.8445 3.408214,0.11694 0.681477,0.72464 0.705247,0.90265 0.793266,5.94057 0.0499,2.85645 0.127961,5.19354 0.173455,5.19354 0.04549,0 1.8955,-0.87002 4.111126,-1.93337 2.321398,-1.11412 4.421381,-1.93685 4.955793,-1.94155 1.720078,-0.0152 2.774583,1.70381 2.077533,3.38664 -0.301285,0.72736 -0.98713,1.17112 -4.146121,2.68259 l -3.78512,1.81105 3.767188,1.83695 c 2.930892,1.42916 3.853386,2.01861 4.155471,2.65523 0.747642,1.57559 -0.354693,3.38359 -2.062968,3.38359 -0.60982,0 -3.178921,-1.06976 -7.171501,-2.98615 z m 119.738971,2.31546 c -0.89885,-0.95679 -0.85554,-2.63446 0.0897,-3.47256 0.39584,-0.351 2.15114,-1.29019 3.90068,-2.0871 1.74954,-0.79691 3.1861,-1.52731 3.19236,-1.62312 0.007,-0.0958 -1.45563,-0.85566 -3.24867,-1.68856 -3.86884,-1.79715 -4.5641,-2.36271 -4.5641,-3.71269 0,-1.37984 0.41604,-2.0049 1.593,-2.39333 0.96611,-0.31884 1.23543,-0.23157 5.29413,1.7155 2.35194,1.12828 4.37254,2.05142 4.49024,2.05142 0.11769,0 0.21398,-2.35318 0.21398,-5.22928 0,-5.1657 0.009,-5.23792 0.71129,-5.94056 1.34516,-1.34517 3.62045,-0.72259 4.08215,1.11695 0.0944,0.37612 0.13031,3.82588 0.0798,7.66615 -0.0849,6.45503 -0.13557,7.03986 -0.67138,7.7446 -0.75627,0.99472 -12.2893,6.52327 -13.60808,6.52327 -0.59218,0 -1.15167,-0.24131 -1.55505,-0.67069 z m -125.97471,-33.9453 -0.711287,-0.71128 v -8.68565 -8.68565 l 0.763539,-0.6006 c 1.012197,-0.7962 2.207187,-0.75937 3.204828,0.0988 l 0.813065,0.69937 v 8.5988 8.5988 l -0.813065,0.69936 c -1.0625,0.91393 -2.335896,0.90927 -3.25708,-0.0119 z m 138.24001,0.37667 c -1.28759,-0.70425 -1.30403,-0.82691 -1.30403,-9.73147 v -8.5064 l 0.71129,-0.71129 c 1.04728,-1.04728 2.49529,-0.97193 3.46482,0.1803 l 0.75022,0.89158 v 8.2589 8.25888 l -0.84706,0.84707 c -0.88328,0.88328 -1.79085,1.05085 -2.77524,0.51243 z m -138.187758,-30.40348 -0.763539,-0.6006 v -7.48125 c 0,-6.7129 0.05208,-7.54024 0.507121,-8.05583 0.644716,-0.7305 12.740465,-6.444426 13.642127,-6.444426 0.887806,0 2.368424,1.501483 2.368424,2.401792 0,1.25594 -1.082131,2.151874 -4.675392,3.870954 l -3.50687,1.67774 3.439118,1.67981 c 4.853585,2.3707 5.734556,3.62228 3.865364,5.49147 -1.182545,1.18254 -1.819256,1.05996 -6.710218,-1.29191 l -3.965703,-1.90694 -0.09127,4.93117 -0.09127,4.93119 -0.813065,0.69871 c -0.997864,0.85753 -2.192885,0.89412 -3.204828,0.0981 z M 173.65311,118.7512 c -0.69956,-0.69956 -0.71129,-0.79276 -0.71129,-5.65079 0,-2.71673 -0.0456,-4.9395 -0.10122,-4.9395 -0.0557,0 -2.00395,0.91282 -4.32948,2.02849 -2.32554,1.11566 -4.56795,2.02848 -4.98316,2.02848 -1.15391,0 -2.17749,-1.19868 -2.17749,-2.54997 0,-1.46434 0.31385,-1.72506 4.43401,-3.68351 1.86459,-0.88631 3.39015,-1.66039 3.39015,-1.72018 0,-0.0598 -1.5291,-0.844 -3.39801,-1.74267 -4.13174,-1.98678 -4.42615,-2.23234 -4.42615,-3.691806 0,-1.331249 1.01912,-2.54997 2.13232,-2.54997 1.02593,0 12.95983,5.694506 13.73335,6.553146 0.63875,0.70906 0.65201,0.86823 0.65201,7.8296 v 7.10585 l -0.84706,0.84705 c -1.08079,1.08079 -2.37096,1.1328 -3.36798,0.13578 z M 62.927101,93.274607 c -0.989592,-0.85122 -1.103916,-2.499312 -0.233497,-3.366106 0.833305,-0.829837 16.278543,-8.119466 17.180657,-8.108689 0.89043,0.01068 1.548859,0.448323 2.028139,1.348204 0.505312,0.948764 0.410249,1.714891 -0.314897,2.537771 -0.777548,0.882352 -16.098506,8.275719 -17.149418,8.275719 -0.391826,0 -1.071768,-0.309105 -1.510984,-0.686899 z m 76.834489,-3.123101 c -4.30329,-2.066655 -8.07845,-4.007999 -8.38924,-4.31409 -0.87108,-0.857914 -0.75638,-2.508463 0.23349,-3.359921 0.43922,-0.377794 1.14992,-0.68234 1.57932,-0.676771 0.95176,0.01232 16.16752,7.245748 17.08109,8.120148 1.44119,1.379409 0.28531,4.069574 -1.72487,4.014414 -0.58909,-0.01618 -3.95662,-1.467451 -8.77979,-3.78378 z m -34.23592,-3.425915 c -1.38297,-0.571989 -1.55238,-1.259874 -1.55238,-6.303505 0,-2.844478 -0.11125,-4.716954 -0.28025,-4.716954 -0.15413,0 -2.06408,0.847622 -4.244305,1.883598 -2.180234,1.035976 -4.276895,1.88359 -4.659248,1.88359 -1.808149,0 -2.879045,-2.790815 -1.583208,-4.125925 0.681109,-0.701751 12.452571,-6.306286 13.245391,-6.306286 0.59049,0 2.58671,0.89084 10.57952,4.721255 2.80059,1.342133 3.45978,1.995379 3.45978,3.428617 0,0.800619 -1.53847,2.28256 -2.36843,2.28141 -0.37086,-5.17e-4 -2.56514,-0.903742 -4.87616,-2.007166 l -4.20187,-2.006238 -0.14489,5.04276 c -0.13075,4.550548 -0.20146,5.098239 -0.72446,5.611192 -0.71212,0.698449 -1.82262,0.955648 -2.64949,0.613652 z"
       id="path302" /></g></svg>
